<?xml version="1.0" encoding="UTF-8"?>
<svg width="1440" height="300" viewBox="0 0 1440 300" fill="none" xmlns="http://www.w3.org/2000/svg">
    <!-- Background gradient -->
    <defs>
        <linearGradient id="gradient" x1="0%" y1="0%" x2="100%" y2="100%">
            <stop offset="0%" style="stop-color:#2c3e50;stop-opacity:0.9" />
            <stop offset="100%" style="stop-color:#3498db;stop-opacity:0.9" />
        </linearGradient>
        
        <!-- Pattern definition -->
        <pattern id="pattern" x="0" y="0" width="30" height="30" patternUnits="userSpaceOnUse">
            <path d="M15 0L30 15L15 30L0 15L15 0Z" fill="white" fill-opacity="0.05"/>
            <circle cx="15" cy="15" r="1.5" fill="white" fill-opacity="0.1"/>
        </pattern>
    </defs>

    <!-- Base background with gradient -->
    <rect width="100%" height="100%" fill="url(#gradient)"/>
    
    <!-- Decorative elements -->
    <rect width="100%" height="100%" fill="url(#pattern)"/>
    
    <!-- Abstract shapes -->
    <path d="M0 200Q360 175 720 200T1440 200V300H0V200Z" fill="white" fill-opacity="0.05"/>
    <path d="M0 225Q360 200 720 225T1440 225V300H0V225Z" fill="white" fill-opacity="0.03"/>
    
    <!-- Subtle dots -->
    <g fill="white" fill-opacity="0.1">
        <circle cx="100" cy="50" r="1.5"/>
        <circle cx="400" cy="100" r="1.5"/>
        <circle cx="700" cy="75" r="1.5"/>
        <circle cx="1000" cy="125" r="1.5"/>
        <circle cx="1300" cy="50" r="1.5"/>
    </g>
</svg>
